# xmcd
#
# Track frame offsets: 
#        150
#        2653
#        18515
#        35688
#        56148
#        76300
#        92827
#        112655
#        133938
#        150663
#        159733
#        176633
#        191530
#        209860
#        227475
#        244177
#        257540
#        262953
#        283558
#        293088
#        310277
#        313500
#        334088
#        345628
#
# Disc length: 4797 seconds
#
# Revision: 7
# Processed by: cddbd v1.5.2PL0 Copyright (c) Steve Scherf et al.
# Submitted via: ExactAudioCopy v0.99pb4
#
DISCID=5412bb18
DTITLE=Styles P - A Gangster And A Gentleman
DYEAR=2002
DGENRE=Rap
TTITLE0=Intro
TTITLE1=Good Times
TTITLE2=Y'all Know We In Here (feat. Swizz Beatz and P.K.)
TTITLE3=A Gangster And A Gentlemen
TTITLE4=Black Magic (feat. Angie Stone)
TTITLE5=Daddy Get That Cash (feat. Lil' Mo)
TTITLE6=Lick Shots (feat. Jadakiss, Sheek and J-Hood)
TTITLE7=And I Came To... (feat. Eve and Sheek)
TTITLE8=Get Paid
TTITLE9=Ass Bag (Skit)
TTITLE10=I'm A Ruff Ryder (feat. Jadakiss)
TTITLE11=Soul Clap
TTITLE12=We Thugs (My Niggas) (feat. Jadakiss and Sheek)
TTITLE13=Styles (feat. Jadakiss)
TTITLE14=Barbershop (Skit)
TTITLE15=Listen
TTITLE16=Niggas Flippin' (Skit)
TTITLE17=Y'all Don't Wanna Fuck (feat. M.O.P.)
TTITLE18=Shit Done Changed (Skit) (feat. Styles and Garf)
TTITLE19=Nobody Believes Me (feat. Sheek, Cross and J-Hood)
TTITLE20=Dedication (Skit)
TTITLE21=My Brother
TTITLE22=Outro
TTITLE23=The Life (Bonus Track)
EXTD=
EXTT0=5412bb18
EXTT1=
EXTT2=
EXTT3=
EXTT4=
EXTT5=
EXTT6=
EXTT7=
EXTT8=
EXTT9=
EXTT10=
EXTT11=
EXTT12=
EXTT13=
EXTT14=
EXTT15=
EXTT16=
EXTT17=
EXTT18=
EXTT19=
EXTT20=
EXTT21=
EXTT22=
EXTT23=
PLAYORDER=
